<svg width="1920" height="1672" viewBox="0 0 1920 1672" fill="none" xmlns="http://www.w3.org/2000/svg">
<g clip-path="url(#clip0_208_1091)">
<rect width="1920" height="1672" fill="#020917"/>
<g filter="url(#filter0_f_208_1091)">
<path d="M979.124 -128.632C990.526 77.021 780.676 255.883 510.411 270.867C240.146 285.852 15.2058 343.206 3.80378 137.553C-56.7587 -290.113 198.855 -458.884 469.12 -473.869C739.386 -488.853 967.722 -334.285 979.124 -128.632Z" fill="#FC7819"/>
</g>
<g filter="url(#filter1_f_208_1091)">
<ellipse cx="533" cy="-147" rx="267" ry="242" fill="white"/>
</g>
<g filter="url(#filter2_f_208_1091)">
<path d="M1260.83 1080.94C1192.09 824.426 1308.37 570.394 1520.54 513.543C1732.71 456.692 1896.29 353.042 1965.03 609.556C2137.48 1137.8 1981.62 1385.61 1769.45 1442.46C1557.28 1499.31 1329.56 1337.45 1260.83 1080.94Z" fill="#343A40"/>
</g>
</g>
<defs>
<filter id="filter0_f_208_1091" x="-217.182" y="-686.872" width="1408.75" height="1188.51" filterUnits="userSpaceOnUse" color-interpolation-filters="sRGB">
<feFlood flood-opacity="0" result="BackgroundImageFix"/>
<feBlend mode="normal" in="SourceGraphic" in2="BackgroundImageFix" result="shape"/>
<feGaussianBlur stdDeviation="106" result="effect1_foregroundBlur_208_1091"/>
</filter>
<filter id="filter1_f_208_1091" x="19" y="-636" width="1028" height="978" filterUnits="userSpaceOnUse" color-interpolation-filters="sRGB">
<feFlood flood-opacity="0" result="BackgroundImageFix"/>
<feBlend mode="normal" in="SourceGraphic" in2="BackgroundImageFix" result="shape"/>
<feGaussianBlur stdDeviation="123.5" result="effect1_foregroundBlur_208_1091"/>
</filter>
<filter id="filter2_f_208_1091" x="1029.06" y="232.02" width="1221.87" height="1433.81" filterUnits="userSpaceOnUse" color-interpolation-filters="sRGB">
<feFlood flood-opacity="0" result="BackgroundImageFix"/>
<feBlend mode="normal" in="SourceGraphic" in2="BackgroundImageFix" result="shape"/>
<feGaussianBlur stdDeviation="106" result="effect1_foregroundBlur_208_1091"/>
</filter>
<clipPath id="clip0_208_1091">
<rect width="1920" height="1672" fill="white"/>
</clipPath>
</defs>
</svg>
