<svg width="181" height="52" viewBox="0 0 181 52" fill="none" xmlns="http://www.w3.org/2000/svg">
<path d="M80.52 4.38C78.2 4.44 76.94 6.06 76.22 7.6H76.16L77.26 4.38H68.68V19.06H77.06L77.38 10.06H77.56L79.54 19.06H86.02V10.26C86.02 5.98 83.56 4.32 80.52 4.38ZM95.3147 12.26L95.2747 12.24V12.22V12.2C95.2747 12.06 95.2747 11.94 95.2747 11.8C95.2747 9.94 95.4347 8.42 95.6347 8.42C95.8147 8.42 95.9747 9.94 95.9747 11.8C95.9747 12 95.9747 12.2 95.9747 12.38C96.7947 12.64 97.6747 12.76 98.5747 12.78C103.835 12.84 104.335 10.02 104.155 9.4C103.195 6.34 100.535 4.14 97.1747 4.14H94.1947C90.0547 4.14 86.6947 7.5 86.6947 11.64C86.6947 15.8 90.0547 19.16 94.1947 19.16H97.1747C100.895 19.16 103.995 16.44 104.575 12.88C101.715 13.84 97.3347 14.14 95.3147 12.26ZM120.6 12.72L116.86 12.3V12.1L120.58 11.64L121.88 4.42C121.88 4.42 115.9 3.18 113.38 8.52H113.26L114.4 4.46H105.34V18.96H113.1L113.08 14.86H113.28L114.8 18.96H122.32L120.6 12.72ZM132.849 3.96H129.589C125.369 3.96 121.949 7.38 121.949 11.62V11.78C121.949 16 125.369 19.44 129.589 19.44H132.849C137.069 19.44 140.489 16 140.489 11.78V11.62C140.489 7.38 137.069 3.96 132.849 3.96ZM131.209 15.08C131.029 15.08 130.869 13.56 130.869 11.7C130.869 9.82 131.029 8.3 131.209 8.3C131.409 8.3 131.569 9.82 131.569 11.7C131.569 13.56 131.409 15.08 131.209 15.08Z" fill="white"/>
<path d="M69 44V32.3333H70.4167V44H69ZM72.3885 44V35.6667H73.8052V37.05H73.8385C74.0608 36.6056 74.4052 36.2389 74.8719 35.95C75.3497 35.65 75.8997 35.5 76.5219 35.5C77.5885 35.5 78.3552 35.8167 78.8219 36.45C79.2885 37.0833 79.5219 38.0056 79.5219 39.2167V44H78.0885V39.2333C78.0885 38.3333 77.9441 37.6833 77.6552 37.2833C77.3663 36.8722 76.8552 36.6667 76.1219 36.6667C75.3885 36.6667 74.8163 36.9 74.4052 37.3667C74.0052 37.8333 73.8052 38.4778 73.8052 39.3V44H72.3885ZM87.4219 35.6667H88.9719L85.5219 44H84.1552L80.7219 35.6667H82.2552L84.8552 42.3333L87.4219 35.6667ZM93.2531 44.1667C92.0309 44.1667 91.0587 43.75 90.3365 42.9167C89.6253 42.0722 89.2698 41.0444 89.2698 39.8333C89.2698 38.5667 89.6365 37.5278 90.3698 36.7167C91.1142 35.9056 92.0753 35.5 93.2531 35.5C94.542 35.5 95.5253 35.9444 96.2031 36.8333C96.8809 37.7222 97.192 38.8389 97.1365 40.1833H90.7365C90.7698 41.05 91.0142 41.7389 91.4698 42.25C91.9365 42.75 92.5309 43 93.2531 43C93.942 43 94.5087 42.8222 94.9531 42.4667C95.3976 42.1 95.6753 41.6389 95.7865 41.0833H97.1698C97.0142 42.0056 96.5809 42.75 95.8698 43.3167C95.1698 43.8833 94.2976 44.1667 93.2531 44.1667ZM90.7531 39.1333H95.7198C95.6642 38.3778 95.4142 37.7778 94.9698 37.3333C94.5253 36.8889 93.9531 36.6667 93.2531 36.6667C92.5865 36.6667 92.0087 36.9 91.5198 37.3667C91.042 37.8222 90.7865 38.4111 90.7531 39.1333ZM101.873 44.1667C100.717 44.1667 99.834 43.8944 99.2229 43.35C98.6229 42.8056 98.3118 42.0444 98.2896 41.0667H99.7063C99.7396 42.3556 100.462 43 101.873 43C102.473 43 102.94 42.8722 103.273 42.6167C103.606 42.3611 103.773 42.0222 103.773 41.6C103.773 41.2222 103.59 40.9333 103.223 40.7333C102.856 40.5333 102.412 40.3944 101.89 40.3167C101.367 40.2278 100.845 40.1278 100.323 40.0167C99.8118 39.9056 99.3729 39.6889 99.0063 39.3667C98.6396 39.0444 98.4563 38.6 98.4563 38.0333C98.4563 37.2889 98.7451 36.6833 99.3229 36.2167C99.9007 35.7389 100.695 35.5 101.706 35.5C102.706 35.5 103.49 35.75 104.056 36.25C104.623 36.7389 104.917 37.4056 104.94 38.25H103.523C103.434 37.1944 102.823 36.6667 101.69 36.6667C101.112 36.6667 100.667 36.7833 100.356 37.0167C100.045 37.25 99.8896 37.5722 99.8896 37.9833C99.8896 38.2389 100.017 38.4444 100.273 38.6C100.54 38.7556 100.867 38.8611 101.256 38.9167C101.656 38.9722 102.084 39.0556 102.54 39.1667C103.006 39.2667 103.434 39.3889 103.823 39.5333C104.223 39.6778 104.551 39.9222 104.806 40.2667C105.073 40.6111 105.206 41.0389 105.206 41.55C105.206 42.2944 104.912 42.9167 104.323 43.4167C103.745 43.9167 102.928 44.1667 101.873 44.1667ZM111.334 44H110.268C109.268 44 108.551 43.8111 108.118 43.4333C107.684 43.0556 107.468 42.4722 107.468 41.6833V36.9H105.851V35.6667H107.468V33.25H108.901V35.6667H111.268V36.9H108.901V41.6833C108.901 42.1278 109.007 42.4278 109.218 42.5833C109.44 42.7278 109.79 42.8 110.268 42.8H111.334V44ZM112.81 44V35.6667H114.227V37.1H114.26C114.494 36.6444 114.816 36.2667 115.227 35.9667C115.649 35.6556 116.138 35.5 116.694 35.5C118.027 35.5 118.86 36.1333 119.194 37.4H119.227C119.483 36.8 119.849 36.3333 120.327 36C120.816 35.6667 121.366 35.5 121.977 35.5C122.988 35.5 123.716 35.8 124.16 36.4C124.616 37 124.844 37.8944 124.844 39.0833V44H123.41V39.1167C123.41 38.2278 123.277 37.6 123.01 37.2333C122.755 36.8556 122.299 36.6667 121.644 36.6667C121.01 36.6667 120.499 36.8944 120.11 37.35C119.733 37.8056 119.544 38.4167 119.544 39.1833V44H118.11V39.1833C118.11 38.3167 117.977 37.6833 117.71 37.2833C117.444 36.8722 116.988 36.6667 116.344 36.6667C115.688 36.6667 115.172 36.9056 114.794 37.3833C114.416 37.85 114.227 38.45 114.227 39.1833V44H112.81ZM130.128 44.1667C128.906 44.1667 127.934 43.75 127.211 42.9167C126.5 42.0722 126.145 41.0444 126.145 39.8333C126.145 38.5667 126.511 37.5278 127.245 36.7167C127.989 35.9056 128.95 35.5 130.128 35.5C131.417 35.5 132.4 35.9444 133.078 36.8333C133.756 37.7222 134.067 38.8389 134.011 40.1833H127.611C127.645 41.05 127.889 41.7389 128.345 42.25C128.811 42.75 129.406 43 130.128 43C130.817 43 131.384 42.8222 131.828 42.4667C132.273 42.1 132.55 41.6389 132.661 41.0833H134.045C133.889 42.0056 133.456 42.75 132.745 43.3167C132.045 43.8833 131.173 44.1667 130.128 44.1667ZM127.628 39.1333H132.595C132.539 38.3778 132.289 37.7778 131.845 37.3333C131.4 36.8889 130.828 36.6667 130.128 36.6667C129.461 36.6667 128.884 36.9 128.395 37.3667C127.917 37.8222 127.661 38.4111 127.628 39.1333ZM135.451 44V35.6667H136.868V37.05H136.901C137.123 36.6056 137.468 36.2389 137.934 35.95C138.412 35.65 138.962 35.5 139.584 35.5C140.651 35.5 141.418 35.8167 141.884 36.45C142.351 37.0833 142.584 38.0056 142.584 39.2167V44H141.151V39.2333C141.151 38.3333 141.007 37.6833 140.718 37.2833C140.429 36.8722 139.918 36.6667 139.184 36.6667C138.451 36.6667 137.879 36.9 137.468 37.3667C137.068 37.8333 136.868 38.4778 136.868 39.3V44H135.451ZM149.131 44H148.065C147.065 44 146.348 43.8111 145.915 43.4333C145.481 43.0556 145.265 42.4722 145.265 41.6833V36.9H143.648V35.6667H145.265V33.25H146.698V35.6667H149.065V36.9H146.698V41.6833C146.698 42.1278 146.803 42.4278 147.015 42.5833C147.237 42.7278 147.587 42.8 148.065 42.8H149.131V44ZM156.267 44.1667C155.389 44.1667 154.7 43.9556 154.2 43.5333C153.711 43.1111 153.467 42.5111 153.467 41.7333C153.467 40.2556 154.494 39.4 156.55 39.1667L158.417 38.95C158.65 38.9167 158.811 38.85 158.9 38.75C158.989 38.65 159.033 38.5 159.033 38.3C159.033 37.8111 158.878 37.4167 158.567 37.1167C158.267 36.8167 157.817 36.6667 157.217 36.6667C156.594 36.6667 156.089 36.8056 155.7 37.0833C155.322 37.3611 155.117 37.8 155.083 38.4H153.767C153.8 37.4556 154.139 36.7389 154.783 36.25C155.428 35.75 156.239 35.5 157.217 35.5C158.283 35.5 159.089 35.7944 159.633 36.3833C160.178 36.9611 160.45 37.7333 160.45 38.7V44H159.033V42.5833C158.789 43.0833 158.422 43.4722 157.933 43.75C157.444 44.0278 156.889 44.1667 156.267 44.1667ZM156.533 43.0167C157.289 43.0167 157.894 42.7944 158.35 42.35C158.806 41.9056 159.033 41.2556 159.033 40.4V39.9333L156.95 40.15C156.672 40.1833 156.433 40.2222 156.233 40.2667C156.044 40.3111 155.833 40.3833 155.6 40.4833C155.378 40.5833 155.206 40.7389 155.083 40.95C154.972 41.15 154.917 41.3944 154.917 41.6833C154.917 42.0944 155.067 42.4222 155.367 42.6667C155.678 42.9 156.067 43.0167 156.533 43.0167ZM162.389 47.3333V35.6667H163.805V37.05H163.839C164.061 36.6167 164.411 36.25 164.889 35.95C165.377 35.65 165.939 35.5 166.572 35.5C167.805 35.5 168.755 35.9222 169.422 36.7667C170.1 37.6111 170.439 38.6333 170.439 39.8333C170.439 41.0444 170.105 42.0722 169.439 42.9167C168.783 43.75 167.827 44.1667 166.572 44.1667C165.939 44.1667 165.377 44.0167 164.889 43.7167C164.411 43.4167 164.061 43.0556 163.839 42.6333H163.805V47.3333H162.389ZM166.372 42.9833C167.194 42.9833 167.839 42.6944 168.305 42.1167C168.772 41.5389 169.005 40.7778 169.005 39.8333C169.005 38.8889 168.772 38.1278 168.305 37.55C167.839 36.9722 167.194 36.6833 166.372 36.6833C165.572 36.6833 164.944 36.9722 164.489 37.55C164.044 38.1278 163.822 38.8889 163.822 39.8333C163.822 40.7778 164.044 41.5389 164.489 42.1167C164.944 42.6944 165.572 42.9833 166.372 42.9833ZM171.967 47.3333V35.6667H173.383V37.05H173.417C173.639 36.6167 173.989 36.25 174.467 35.95C174.956 35.65 175.517 35.5 176.15 35.5C177.383 35.5 178.333 35.9222 179 36.7667C179.678 37.6111 180.017 38.6333 180.017 39.8333C180.017 41.0444 179.683 42.0722 179.017 42.9167C178.361 43.75 177.406 44.1667 176.15 44.1667C175.517 44.1667 174.956 44.0167 174.467 43.7167C173.989 43.4167 173.639 43.0556 173.417 42.6333H173.383V47.3333H171.967ZM175.95 42.9833C176.772 42.9833 177.417 42.6944 177.883 42.1167C178.35 41.5389 178.583 40.7778 178.583 39.8333C178.583 38.8889 178.35 38.1278 177.883 37.55C177.417 36.9722 176.772 36.6833 175.95 36.6833C175.15 36.6833 174.522 36.9722 174.067 37.55C173.622 38.1278 173.4 38.8889 173.4 39.8333C173.4 40.7778 173.622 41.5389 174.067 42.1167C174.522 42.6944 175.15 42.9833 175.95 42.9833Z" fill="white"/>
<rect width="48" height="48" rx="8" fill="white"/>
<path d="M39.7678 18.7506C38.3125 15.58 36.0935 12.5816 35.7476 9.11012L35.5152 6.77809C35.3613 5.21272 33.2783 4.79371 32.5287 6.17329L31.38 8.28458C29.8996 11.0058 27.0497 12.6996 23.9519 12.6996C20.8541 12.6996 18.0042 11.0058 16.5238 8.28458L15.3751 6.17329C14.6255 4.79371 12.5464 5.21667 12.3886 6.77809L12.1576 9.10979C11.8133 12.5838 9.59272 15.5844 8.13747 18.7576C7.53359 20.0743 7.19678 21.5396 7.19678 23.084V36.5399C7.19678 39.0303 9.21276 41.0502 11.6982 41.0502H36.2095C38.695 41.0502 40.711 39.0303 40.711 36.5399V23.084C40.711 21.5375 40.3732 20.0696 39.7678 18.7506Z" fill="#FC7819"/>
<path d="M24.0015 34.6749C23.8269 34.039 23.2818 33.5741 22.6263 33.5021L21.2237 33.348C21.1835 33.3435 21.1534 33.309 21.1546 33.2686C21.1557 33.2302 21.1847 33.1983 21.2228 33.1937L22.5222 33.0354C23.2189 32.9505 23.7788 32.421 23.9023 31.7301L24.0721 30.7806C24.3523 29.2139 23.2678 27.6846 21.7283 28.088C20.5326 28.4013 19.2446 29.1287 18.4798 30.7322C18.4719 30.7487 18.4551 30.7598 18.4369 30.7598C18.4058 30.7598 18.3833 30.7303 18.3915 30.7003L18.7695 29.3175C18.968 28.5913 18.4214 27.8753 17.6685 27.8753H15.6487C14.1669 27.8753 12.9656 29.0765 12.9656 30.5584V35.2401C12.9656 36.7013 14.1502 37.8859 15.6114 37.8859H16.8671C17.6383 37.8859 18.263 37.2596 18.2608 36.4883L18.2571 35.1724C18.257 35.1273 18.2935 35.0907 18.3386 35.0907C18.3727 35.0907 18.4031 35.1119 18.415 35.1439L18.9123 36.4883C19.223 37.3283 20.0239 37.8859 20.9195 37.8859H21.9697C23.4359 37.8859 24.4999 36.4905 24.1118 35.0765L24.0015 34.6749Z" fill="white"/>
<path d="M20.7001 17.6013C19.1907 17.6391 18.3752 18.6846 17.8991 19.6938C17.8961 19.7 17.8899 19.704 17.883 19.704C17.8707 19.704 17.8621 19.6919 17.8661 19.6804L18.2177 18.6518C18.394 18.1359 18.0106 17.5996 17.4654 17.5996H15.3059C14.014 17.5996 12.9668 18.6468 12.9668 19.9387V24.3886C12.9668 25.929 14.2155 27.1778 15.7559 27.1778C17.2587 27.1778 18.4914 25.9872 18.5434 24.4853L18.6517 21.3617C18.6528 21.3279 18.6806 21.3011 18.7144 21.3011C18.7439 21.3011 18.7694 21.3215 18.7757 21.3503L19.6606 25.3395C19.8989 26.4135 20.8513 27.1778 21.9514 27.1778C23.2473 27.1778 24.2978 26.1273 24.2978 24.8314V21.4367C24.2961 18.6459 22.6856 17.5516 20.7001 17.6013Z" fill="white"/>
<path d="M30.9173 23.215C33.1163 24.2671 35.1378 26.2974 32.7993 26.9861C32.3678 27.1132 31.9111 27.1813 31.4384 27.1813H29.5227C26.8664 27.1813 24.7135 25.0284 24.7135 22.3722C24.7135 19.7159 26.8664 17.563 29.5227 17.563H31.4384C33.5919 17.563 35.2883 18.9787 35.9011 20.9302C36.0277 21.3342 35.6952 23.1322 32.3285 23.0937C31.8817 23.0885 31.4471 23.0398 31.03 22.9441C30.8124 22.8942 30.6689 22.6931 30.6689 22.4698C30.6689 21.2756 30.5673 20.308 30.4423 20.308C30.3173 20.308 30.2158 21.2762 30.2158 22.4698C30.2158 22.552 30.2163 22.6331 30.2173 22.7132C30.2174 22.7195 30.216 22.7257 30.2162 22.7319C30.2162 22.7338 30.2165 22.7357 30.2169 22.7377C30.2172 22.7392 30.2174 22.7406 30.2174 22.7422C30.2174 22.75 30.2227 22.7569 30.2303 22.7589L30.2322 22.7593C30.2353 22.7601 30.2382 22.7617 30.2406 22.7639C30.4354 22.9444 30.6637 23.0936 30.9173 23.215Z" fill="white"/>
<path d="M31.3347 27.8823H29.2342C26.4953 27.8823 24.2749 30.1028 24.2749 32.8416V32.946C24.2749 35.6848 26.4953 37.9053 29.2342 37.9053H31.3347C34.0735 37.9053 36.2939 35.6848 36.2939 32.946V32.8416C36.2939 30.1028 34.0735 27.8823 31.3347 27.8823ZM30.2844 35.0855C30.1577 35.0855 30.0545 34.1045 30.0545 32.8935C30.0545 31.6831 30.1572 30.7015 30.2844 30.7015C30.4117 30.7015 30.5143 31.6826 30.5143 32.8935C30.5143 34.1039 30.4111 35.0855 30.2844 35.0855Z" fill="white"/>
</svg>
